<svg width="44" height="44" viewBox="0 0 44 44" fill="none" xmlns="http://www.w3.org/2000/svg">
<path d="M44 22C44 26.1577 42.8464 30.0456 40.8408 33.3624C39.1326 36.1936 36.802 38.6058 34.0398 40.4163C33.8724 40.5256 33.7023 40.6335 33.5322 40.7386C33.1698 40.9627 32.7991 41.1757 32.4215 41.379C32.3662 41.4094 32.3108 41.4385 32.2555 41.4675C31.4201 41.9101 30.5528 42.2988 29.6565 42.6307H29.6552C27.6745 43.3665 25.5582 43.8257 23.3534 43.9585C22.98 43.982 22.6024 43.9945 22.222 43.9986C22.1957 43.9986 22.1681 43.9986 22.1418 43.9986C22.0947 43.9986 22.0477 43.9986 22.0007 43.9986H21.9799C21.8983 43.9986 21.8181 43.9986 21.7379 43.9986C21.3714 43.9945 21.009 43.9806 20.648 43.9585C18.4349 43.8243 16.3103 43.3638 14.3213 42.6224C13.5495 42.3347 12.7985 42.0055 12.0723 41.6362C11.9049 41.5533 11.7403 41.4675 11.5771 41.379C11.2023 41.177 10.833 40.964 10.472 40.7414C10.2908 40.6293 10.1124 40.5159 9.93392 40.3997C7.18418 38.592 4.86184 36.184 3.15778 33.3624C1.15356 30.0456 0 26.1577 0 22C0 9.85062 9.84955 0 22.0007 0C34.1518 0 44 9.85062 44 22Z" fill="#FF9D83"/>
<path d="M25.3772 36.5574V31.7994L18.5817 31.7994V36.5574C18.5817 36.5574 12.6852 37.3278 9.93408 40.3997C10.1125 40.5159 10.2909 40.6293 10.4721 40.7413C10.8331 40.964 11.2024 41.177 11.5773 41.379C12.457 41.8534 13.374 42.2697 14.3215 42.6224C16.3105 43.3638 18.435 43.8243 20.6481 43.9585C21.0091 43.9806 21.3715 43.9945 21.7381 43.9986C21.8183 43.9986 21.8985 43.9986 21.9801 43.9986H22.0009C22.0742 43.9986 22.1489 43.9986 22.2222 43.9986C22.6025 43.9945 22.9801 43.982 23.3536 43.9585C25.5584 43.8257 27.6746 43.3665 29.6553 42.6307H29.6567C30.6125 42.2766 31.535 41.8575 32.4216 41.379C32.7993 41.1756 33.1699 40.9626 33.5323 40.7386C33.7025 40.6335 33.8726 40.5256 34.04 40.4163C31.2958 37.3306 25.3772 36.5574 25.3772 36.5574Z" fill="#FDDCAB"/>
<path d="M9.54799 21.4135C9.79281 24.2199 11.5674 24.3886 11.5674 24.3886L11.5937 18.7704C11.5937 18.7704 9.30041 18.6058 9.54799 21.4135Z" fill="#FDDCAB"/>
<path d="M22.0022 7.54358C16.2081 7.54358 11.5122 12.2407 11.5122 18.0332V24.1425C11.5122 29.9364 16.2095 34.6321 22.0022 34.6321L22.0022 7.54358Z" fill="#FDDCAB"/>
<path d="M34.4065 21.3292C34.1617 24.1355 32.3871 24.3043 32.3871 24.3043L32.3608 18.686C32.3608 18.686 34.6541 18.5214 34.4065 21.3292Z" fill="#FFEAD5"/>
<path d="M22.002 7.54358L22.002 34.6335C27.796 34.6335 32.4919 29.9364 32.4919 24.1439V18.0346C32.4919 12.2407 27.7947 7.54496 22.002 7.54496V7.54358Z" fill="#FFEAD5"/>
<path d="M34.0396 40.4163L32.2553 41.4675C31.4199 41.9101 30.5527 42.2987 29.6564 42.6307H29.655C27.6743 43.3665 25.558 43.8257 23.3533 43.9585C22.9798 43.982 22.6022 43.9944 22.2218 43.9986C22.1955 43.9986 22.1679 43.9986 22.1416 43.9986V40.8506H22.1458C22.1928 40.8506 22.2357 40.8465 22.2841 40.8465C26.2842 40.7635 27.0104 36.7621 27.0104 36.7621C27.1169 36.769 27.2206 36.7787 27.323 36.7939C31.3784 37.4191 34.0396 40.4163 34.0396 40.4163Z" fill="#FF3932"/>
<path d="M22.1419 40.8506V43.9986C22.0949 43.9986 22.0479 43.9986 22.0009 43.9986H21.9801C21.8985 43.9986 21.8183 43.9986 21.7381 43.9986C21.3715 43.9944 21.0091 43.9806 20.6481 43.9585C18.435 43.8243 16.3105 43.3637 14.3215 42.6224C13.5497 42.3347 12.7986 42.0055 12.0725 41.6362L9.93408 40.3997C9.93408 40.3997 12.5151 37.3831 16.962 36.7939C17.0657 36.7801 17.1667 36.769 17.2746 36.7621C17.2746 36.7621 18.0007 40.7635 21.9995 40.8465C22.0479 40.8465 22.0921 40.8506 22.1392 40.8506H22.1419Z" fill="#DB242D"/>
<path d="M20.4528 22.5533V19.9972C20.4528 19.9253 20.3961 19.8686 20.3325 19.8686H15.2839V22.538C15.2839 23.2324 15.8469 23.7953 16.5412 23.7953H19.2107C19.8968 23.7953 20.4528 23.2393 20.4528 22.5533ZM21.2592 19.0623V22.5533C21.2592 23.6847 20.3422 24.6017 19.2107 24.6017H16.5495C15.4098 24.6017 14.4775 23.6694 14.4775 22.5298V19.2324C14.4775 19.1383 14.5536 19.0636 14.6463 19.0636H21.2592V19.0623Z" fill="#1F1F24"/>
<path d="M23.5139 22.7234V19.9972C23.5139 19.9253 23.5706 19.8686 23.6342 19.8686H28.6828V22.7068C28.6828 23.3085 28.1959 23.7953 27.5943 23.7953H24.5859C23.9939 23.7953 23.5139 23.3154 23.5139 22.7234ZM22.7075 19.0623V22.7234C22.7075 23.7607 23.5485 24.6017 24.5859 24.6017H27.586C28.633 24.6017 29.4892 23.7455 29.4892 22.6985V19.0623H22.7075Z" fill="#1F1F24"/>
<path d="M14.8789 19.8686H12.4348L12.1914 19.0623H14.8789V19.8686Z" fill="#1F1F24"/>
<path d="M29.0879 19.8686H31.5333L31.7754 19.0623H29.0879V19.8686Z" fill="#1F1F24"/>
<path d="M22.8996 19.0623H21.0669V19.8686H22.8996V19.0623Z" fill="#1F1F24"/>
<path d="M12.4294 19.8741V16.8589C12.4294 16.2822 12.5525 15.7358 12.7669 15.2379C19.2332 10 23.9236 19.8064 31.495 16.1674C31.5338 16.3928 31.5642 16.621 31.5642 16.8575L31.5172 19.7787C32.1686 19.1314 32.6306 18.7206 33.206 18.816L33.5407 16.6003C33.6265 14.2877 32.7523 12.047 31.1672 10.3665C28.8739 7.93499 26.5806 7.14661 21.9954 7.14661C17.4102 7.14661 15.1155 7.93499 12.8236 10.3665C11.2385 12.0484 10.3643 14.2877 10.4501 16.6003L10.7848 18.8976C11.3616 18.8036 11.955 19.195 12.4267 19.8741H12.4294Z" fill="#1F1F24"/>
</svg>
