<svg width="24" height="24" viewBox="0 0 24 24" fill="none" xmlns="http://www.w3.org/2000/svg">
<g clip-path="url(#clip0_1466_2973)">
<path d="M0 18.7021C0 13.2337 0 7.76602 0 2.29766C0.0782983 2.26822 0.0526165 2.19055 0.0676498 2.13668C0.432833 0.79183 1.46449 0.000703457 2.86133 0.000703457C6.61777 0.000703457 10.3736 0.00132984 14.13 -0.000549316C14.3731 -0.000549316 14.6142 0.0107256 14.8504 0.0677268C16.1551 0.383426 16.9989 1.46144 17.0008 2.82759C17.0039 5.94386 17.0001 9.05951 17.0051 12.1758C17.0051 12.3449 16.9594 12.4627 16.8385 12.5836C14.9506 14.4615 13.0683 16.3456 11.1823 18.2254C10.7438 18.662 10.4531 19.1731 10.3492 19.7864C10.2903 20.1321 10.2233 20.4767 10.1656 20.8224C10.145 20.9446 10.1086 21.0028 9.9608 21.0022C7.5323 20.9959 5.1038 21.0047 2.67467 20.9934C1.47201 20.9878 0.392118 20.1152 0.0927052 18.952C0.0701553 18.8675 0.0789247 18.7679 0 18.7021ZM8.51635 8.00404C7.02555 8.00404 5.53538 8.00091 4.04458 8.0053C3.40692 8.00718 2.94715 8.49263 3.00352 9.0927C3.04674 9.55623 3.44888 10.0041 4.09093 10.001C6.84578 9.98844 9.60063 9.99533 12.3555 9.99533C12.5897 9.99533 12.824 9.99846 13.0577 9.99094C13.3658 9.98092 13.6126 9.84186 13.793 9.59632C14.0304 9.27373 14.0693 8.92107 13.8901 8.56153C13.7022 8.18507 13.3859 8.00342 12.9643 8.00342C11.4817 8.00467 9.99901 8.00404 8.51635 8.00404ZM6.48999 11.9998C5.68571 11.9998 4.88143 11.9985 4.07715 12.0004C3.45452 12.0016 3.00478 12.4169 2.99977 12.9901C2.99475 13.5651 3.44137 14.0004 4.05836 14.0023C5.68258 14.0067 7.3068 14.0067 8.93165 14.0023C9.55427 14.0011 9.99462 13.577 9.99337 12.9976C9.99212 12.4176 9.54864 12.0016 8.92663 12.0004C8.11421 11.9985 7.30241 11.9998 6.48999 11.9998ZM5.99953 6.00086C6.6397 6.00086 7.27986 6.00211 7.92003 6.00023C8.54266 5.99835 8.9924 5.58431 8.99804 5.01117C9.00368 4.43677 8.55644 4.00018 7.94196 3.9983C6.64596 3.99329 5.35059 3.99329 4.0546 3.9983C3.43949 4.00081 2.99413 4.4374 2.99977 5.01305C3.0054 5.5768 3.4539 5.99773 4.05585 6.00023C4.70416 6.00274 5.35185 6.00086 5.99953 6.00086Z" fill="black"/>
<path d="M12.2791 23.9981C11.7786 23.7093 11.6897 23.2802 11.8513 22.761C11.8814 22.6651 11.8864 22.5618 11.9039 22.4616C12.0399 21.6942 12.1789 20.9275 12.3111 20.159C12.3443 19.966 12.4295 19.8082 12.566 19.6716C15.0177 17.2206 17.4687 14.7689 19.9204 12.3185C20.1083 12.1306 20.3113 11.9627 20.5537 11.8443C21.1406 11.5574 21.7257 11.6238 22.1986 12.0711C22.6521 12.5001 23.0968 12.9405 23.5228 13.3965C24.1661 14.0855 24.1548 15.1003 23.5109 15.7905C23.2929 16.0242 23.0611 16.2459 22.835 16.4727C20.6545 18.6538 18.4691 20.8298 16.2987 23.0209C16.0055 23.3172 15.6848 23.4694 15.2839 23.5308C14.4289 23.6617 13.5783 23.8164 12.7257 23.963C12.7157 23.9649 12.7088 23.9862 12.7007 23.9981C12.5604 23.9981 12.4201 23.9981 12.2791 23.9981Z" fill="black"/>
</g>
<defs>
<clipPath id="clip0_1466_2973">
<rect width="24" height="24" fill="white"/>
</clipPath>
</defs>
</svg>
