<svg width="24" height="24" viewBox="0 0 24 24" fill="none" xmlns="http://www.w3.org/2000/svg">
<path d="M2 13.4028C2.0595 13.3876 2.04645 13.3292 2.06054 13.2911C2.26565 12.7358 2.70092 12.4278 3.29642 12.4268C4.11007 12.4252 4.9232 12.4263 5.73685 12.4263C9.6475 12.4263 13.5587 12.4263 17.4693 12.4263C17.5398 12.4263 17.6102 12.4263 17.7141 12.4263C17.6515 12.3579 17.6082 12.3068 17.5617 12.2603C16.8623 11.5604 16.1625 10.8621 15.4636 10.1622C15.1129 9.81101 14.9877 9.39087 15.1197 8.91176C15.2476 8.44778 15.5602 8.14925 16.0268 8.03809C16.5012 7.92483 16.9078 8.06731 17.2522 8.41282C18.5987 9.76299 19.9479 11.11 21.2959 12.4581C21.4066 12.5688 21.5188 12.6768 21.6268 12.7901C22.12 13.3088 22.1305 14.0515 21.6258 14.5598C20.1592 16.0379 18.6864 17.5102 17.2089 18.9778C16.6969 19.4866 15.9146 19.4757 15.425 18.9762C14.9433 18.4846 14.9485 17.7148 15.4501 17.2059C16.1447 16.5019 16.8477 15.8056 17.5476 15.1068C17.5972 15.0572 17.6515 15.0123 17.747 14.9262C17.6243 14.9262 17.5565 14.9262 17.4892 14.9262C12.8103 14.9262 8.13189 14.9262 3.45299 14.9262C2.6623 14.9262 2.33767 14.7075 2.03079 13.969C2.02714 13.9602 2.01096 13.956 2.00052 13.9497C2 13.7671 2 13.5849 2 13.4028Z" fill="white"/>
</svg>
