<svg width="12" height="8" viewBox="0 0 12 8" fill="none" xmlns="http://www.w3.org/2000/svg">
<path d="M-0.0739126 1.37687C0.0311575 1.10137 0.257487 0.923604 0.455716 0.724152C0.78559 0.39153 1.16067 0.391836 1.49176 0.722625C2.94137 2.17162 4.39129 3.62062 5.83815 5.07267C5.91298 5.14781 5.94597 5.13987 6.01591 5.07023C7.46308 3.61879 8.91299 2.16979 10.3626 0.720793C10.6192 0.464225 10.9261 0.399166 11.198 0.576626C11.4466 0.738814 11.6574 0.954758 11.8241 1.20033C11.9845 1.43674 11.9478 1.72843 11.7655 1.95018C11.7383 1.98317 11.7093 2.01524 11.679 2.04548C9.93438 3.79045 8.18972 5.53541 6.44475 7.28008C6.18421 7.54061 5.88091 7.59529 5.59655 7.43554C5.52446 7.39492 5.46521 7.33811 5.40717 7.28008C3.66221 5.53541 1.91815 3.79014 0.171659 2.0467C0.0531492 1.92849 -0.025959 1.79227 -0.0742188 1.63466C-0.0739136 1.54884 -0.0739126 1.46301 -0.0739126 1.37687Z" fill="black"/>
</svg>
