<svg width="16" height="16" viewBox="0 0 16 16" fill="none" xmlns="http://www.w3.org/2000/svg">
<circle cx="8" cy="8" r="8" fill="#D9D9D9"/>
<g clip-path="url(#clip0_2915_5088)">
<path d="M8.54969 7.99998L10.886 5.66363C11.038 5.51166 11.038 5.26595 10.886 5.11398C10.734 4.96201 10.4883 4.96201 10.3363 5.11398L7.99996 7.45033L5.66368 5.11398C5.51164 4.96201 5.266 4.96201 5.11403 5.11398C4.96199 5.26595 4.96199 5.51166 5.11403 5.66363L7.45031 7.99998L5.11403 10.3363C4.96199 10.4883 4.96199 10.734 5.11403 10.886C5.18977 10.9618 5.28935 10.9999 5.38886 10.9999C5.48837 10.9999 5.58788 10.9618 5.66368 10.886L7.99996 8.54964L10.3363 10.886C10.4121 10.9618 10.5116 10.9999 10.6111 10.9999C10.7107 10.9999 10.8102 10.9618 10.886 10.886C11.038 10.734 11.038 10.4883 10.886 10.3363L8.54969 7.99998Z" fill="#747474"/>
</g>
<defs>
<clipPath id="clip0_2915_5088">
<rect width="6" height="6" fill="white" transform="translate(5 5)"/>
</clipPath>
</defs>
</svg>
