<svg width="32" height="32" viewBox="0 0 32 32" fill="none" xmlns="http://www.w3.org/2000/svg">
<circle cx="16" cy="16" r="16" fill="white"/>
<path d="M17.5643 16.6331L21.5427 12.6545C21.8016 12.3957 21.8016 11.9773 21.5427 11.7185C21.2839 11.4597 20.8655 11.4597 20.6067 11.7185L16.6281 15.6971L12.6497 11.7185C12.3908 11.4597 11.9725 11.4597 11.7137 11.7185C11.4548 11.9773 11.4548 12.3957 11.7137 12.6545L15.6921 16.6331L11.7137 20.6116C11.4548 20.8704 11.4548 21.2888 11.7137 21.5476C11.8427 21.6767 12.0123 21.7415 12.1817 21.7415C12.3512 21.7415 12.5206 21.6767 12.6497 21.5476L16.6281 17.5691L20.6067 21.5476C20.7358 21.6767 20.9052 21.7415 21.0747 21.7415C21.2441 21.7415 21.4136 21.6767 21.5427 21.5476C21.8016 21.2888 21.8016 20.8704 21.5427 20.6116L17.5643 16.6331Z" fill="black"/>
</svg>
