<svg width="32" height="32" viewBox="0 0 32 32" fill="none" xmlns="http://www.w3.org/2000/svg">
<circle cx="16" cy="16" r="16" fill="#F6F6F6"/>
<g clip-path="url(#clip0_1540_3025)">
<path d="M7 20.5393C7.09265 20.414 7.06848 20.2592 7.10026 20.1191C7.28779 19.2839 7.68927 18.5704 8.29171 17.9671C9.55343 16.7036 10.812 15.437 12.0787 14.1784C13.5387 12.7278 15.6526 12.4637 17.3789 13.5191C17.7687 13.7577 18.1523 14.0199 18.3747 14.4411C18.6334 14.9303 18.5121 15.548 18.1044 15.885C17.6541 16.2574 17.015 16.2842 16.571 15.9369C16.2904 15.7176 16.0285 15.4808 15.6669 15.3877C15.0268 15.223 14.4548 15.3385 13.95 15.7646C13.8229 15.8716 13.7092 15.9946 13.591 16.1124C12.3951 17.3069 11.1974 18.4997 10.005 19.6979C9.22625 20.4807 9.25086 21.6681 10.052 22.3932C10.7646 23.0382 11.8705 22.9974 12.5835 22.2916C13.2898 21.5925 13.9983 20.8947 14.6862 20.1777C14.91 19.9441 15.1101 19.8953 15.4073 20.0166C15.952 20.2395 16.5303 20.3151 17.117 20.3245C17.1707 20.3254 17.2244 20.3218 17.2777 20.3281C17.5413 20.3594 17.6559 20.6221 17.489 20.8276C17.3918 20.9471 17.275 21.0509 17.1654 21.1601C16.1489 22.1721 15.1441 23.1962 14.1111 24.1907C13.4585 24.8191 12.6533 25.157 11.751 25.2559C11.7228 25.259 11.6906 25.251 11.6803 25.2899C11.3827 25.2899 11.085 25.2899 10.7874 25.2899C10.731 25.2223 10.6469 25.2425 10.5761 25.2282C8.79389 24.8723 7.65346 23.8201 7.13785 22.0799C7.08146 21.8892 7.09533 21.6838 7.0009 21.503C7 21.1825 7 20.8607 7 20.5393Z" fill="#747474"/>
<path d="M17.0147 19.4142C15.8541 19.3645 14.8381 18.9483 14.0468 18.0643C13.6404 17.6105 13.6883 16.9109 14.109 16.4719C14.5145 16.0489 15.2333 15.9912 15.7082 16.355C15.9906 16.5717 16.2516 16.8116 16.6128 16.9051C17.2662 17.0738 17.8557 16.9628 18.3543 16.5063C18.7625 16.133 19.1447 15.7311 19.5368 15.3399C20.4512 14.4273 21.3687 13.5178 22.2777 12.5999C23.155 11.7132 22.9701 10.2913 21.908 9.68659C21.2013 9.28421 20.2986 9.41356 19.6921 10.0138C18.9728 10.7254 18.254 11.4384 17.5464 12.1621C17.3624 12.3506 17.1933 12.3976 16.9457 12.2986C16.3487 12.0601 15.7207 11.9652 15.0789 11.9665C14.929 11.967 14.8108 11.9204 14.7468 11.7763C14.6806 11.6282 14.7401 11.5105 14.8439 11.4075C15.9584 10.2993 17.0505 9.16784 18.1936 8.08963C19.7422 6.62919 22.2889 6.64664 23.8541 8.08292C25.3208 9.42878 25.699 11.4272 24.8186 13.2099C24.6253 13.6015 24.3675 13.9515 24.0586 14.2608C22.7419 15.5794 21.43 16.9029 20.1034 18.2116C19.3452 18.9595 18.4192 19.3484 17.3517 19.3923C17.2443 19.3963 17.1378 19.4062 17.0147 19.4142Z" fill="#747474"/>
</g>
<defs>
<clipPath id="clip0_1540_3025">
<rect width="18.29" height="18.29" fill="white" transform="translate(7 7)"/>
</clipPath>
</defs>
</svg>
