<svg width="49" height="32" viewBox="0 0 49 32" fill="none" xmlns="http://www.w3.org/2000/svg">
<path d="M45.3769 18.4242H3.10805C1.3911 18.4242 0 17.3391 0 16C0 14.6608 1.3911 13.5757 3.10805 13.5757H45.3769C47.0938 13.5757 48.4848 14.6607 48.4848 16C48.4848 17.3392 47.0938 18.4242 45.3769 18.4242Z" fill="white"/>
<path d="M22.6909 4.84848H2.52124C1.12846 4.84848 0 3.76337 0 2.42424C0 1.08511 1.12846 0 2.52124 0H22.6909C24.0836 0 25.2121 1.08504 25.2121 2.42424C25.2121 3.76344 24.0836 4.84848 22.6909 4.84848Z" fill="white"/>
<path d="M45.9643 31.9999H25.7947C24.4019 31.9999 23.2734 30.9147 23.2734 29.5756C23.2734 28.2365 24.4019 27.1514 25.7947 27.1514H45.9643C47.357 27.1514 48.4856 28.2364 48.4856 29.5756C48.4856 30.9148 47.357 31.9999 45.9643 31.9999Z" fill="white"/>
</svg>
