<svg width="20" height="20" viewBox="0 0 20 20" fill="none" xmlns="http://www.w3.org/2000/svg">
<path d="M20 10.1851C19.3763 11.0932 18.643 11.9059 17.8317 12.6475C16.1652 14.1711 14.2665 15.2662 12.0306 15.7044C9.59535 16.1815 7.2754 15.8145 5.0723 14.6851C3.09417 13.6709 1.51474 12.195 0.177706 10.4408C-0.0611045 10.1277 -0.0585422 9.76383 0.181293 9.44917C1.54036 7.66937 3.15207 6.18065 5.16659 5.16545C6.36577 4.56073 7.63208 4.17638 8.97372 4.0498C11.8722 3.77665 14.4341 4.63863 16.7427 6.35232C17.9219 7.22762 18.9228 8.28023 19.815 9.442C19.898 9.55013 19.938 9.67722 19.9995 9.79458C20 9.92474 20 10.0549 20 10.1851ZM14.2019 9.99905C14.2311 7.71344 12.377 5.7799 10.1252 5.74863C7.7561 5.71584 5.83895 7.54843 5.80205 9.87093C5.76464 12.2042 7.60543 14.1029 9.88797 14.147C12.2658 14.1936 14.1717 12.341 14.2019 9.99905Z" fill="#747474"/>
<path d="M12.2669 9.9314C12.2628 11.2003 11.2363 12.2196 9.96946 12.2124C8.74569 12.2057 7.73664 11.1798 7.74074 9.94677C7.74483 8.69738 8.77797 7.68166 10.0392 7.68679C11.2558 7.6914 12.271 8.71429 12.2669 9.9314Z" fill="#747474"/>
</svg>
