<svg width="14" height="8" viewBox="0 0 14 8" fill="none" xmlns="http://www.w3.org/2000/svg">
<path d="M13.6665 3.93542C13.6268 3.92533 13.6355 3.88636 13.6261 3.86096C13.4894 3.49076 13.1992 3.28548 12.8022 3.28478C12.2598 3.28374 11.7177 3.28443 11.1753 3.28443C8.56817 3.28443 5.96072 3.28443 3.35362 3.28443C3.30665 3.28443 3.25968 3.28443 3.19044 3.28443C3.23219 3.23885 3.26107 3.20475 3.29203 3.17379C3.75827 2.7072 4.22486 2.24166 4.69075 1.77508C4.92456 1.54091 5.00807 1.26082 4.92004 0.941417C4.83479 0.6321 4.62638 0.43308 4.31532 0.358969C3.99904 0.283466 3.728 0.378453 3.49836 0.608788C2.60068 1.5089 1.70126 2.40693 0.802538 3.30566C0.728775 3.37942 0.653969 3.45144 0.581945 3.52694C0.253144 3.87279 0.246185 4.36791 0.582641 4.7068C1.56035 5.69216 2.54223 6.6737 3.52724 7.6521C3.86857 7.99134 4.39013 7.98403 4.71649 7.65105C5.03764 7.3233 5.03416 6.81009 4.69979 6.47085C4.23669 6.00148 3.76801 5.53733 3.30143 5.07144C3.26838 5.03839 3.23219 5.00846 3.16852 4.95106C3.25028 4.95106 3.29551 4.95106 3.3404 4.95106C6.45966 4.95106 9.57858 4.95106 12.6978 4.95106C13.225 4.95106 13.4414 4.80527 13.646 4.31294C13.6484 4.30702 13.6592 4.30424 13.6662 4.30006C13.6665 4.17828 13.6665 4.05685 13.6665 3.93542Z" fill="black"/>
</svg>
