<svg width="23" height="24" viewBox="0 0 23 24" fill="none" xmlns="http://www.w3.org/2000/svg">
<path d="M22.4533 21.8602L16.8328 15.9194C18.2779 14.1735 19.0697 11.9768 19.0697 9.68999C19.0697 4.34701 14.7923 0 9.53485 0C4.27742 0 0 4.34701 0 9.68999C0 15.033 4.27742 19.38 9.53485 19.38C11.5086 19.38 13.3894 18.775 14.9975 17.6265L20.6608 23.6124C20.8975 23.8622 21.2159 24 21.5571 24C21.88 24 22.1864 23.8749 22.4189 23.6474C22.9131 23.1641 22.9288 22.3628 22.4533 21.8602ZM9.53485 2.52782C13.4209 2.52782 16.5824 5.74069 16.5824 9.68999C16.5824 13.6393 13.4209 16.8522 9.53485 16.8522C5.64878 16.8522 2.48735 13.6393 2.48735 9.68999C2.48735 5.74069 5.64878 2.52782 9.53485 2.52782Z" fill="#EB522F"/>
</svg>
