<svg width="40" height="40" viewBox="0 0 40 40" fill="none" xmlns="http://www.w3.org/2000/svg">
<circle cx="20" cy="20" r="20" fill="white"/>
<path d="M8.33398 23.9832C8.56795 24.6536 9.12197 25.061 9.61781 25.5063C10.0252 25.8727 10.695 25.849 11.1356 25.5099C11.2371 25.4315 11.3304 25.3407 11.4218 25.2498C14.2187 22.4547 17.0173 19.6602 19.807 16.8574C19.9775 16.6864 20.0511 16.7149 20.2025 16.8669C23.0053 19.6781 25.8135 22.4838 28.621 25.2902C29.1263 25.7955 29.735 25.9238 30.2647 25.5687C30.7433 25.248 31.1566 24.8306 31.4749 24.349C31.7842 23.8799 31.7064 23.3003 31.343 22.871C31.2842 22.8015 31.2207 22.7362 31.1566 22.6715C27.7897 19.2974 24.4221 15.924 21.054 12.5511C20.9632 12.4603 20.8694 12.3706 20.7696 12.2892C20.2946 11.9021 19.6984 11.9039 19.2287 12.2934C19.1295 12.3753 19.0369 12.4662 18.946 12.5571C15.762 15.75 12.5786 18.9423 9.3975 22.1376C9.00143 22.5355 8.54954 22.89 8.33398 23.4369C8.33398 23.6192 8.33398 23.8015 8.33398 23.9832Z" fill="black"/>
</svg>
