<svg width="14" height="8" viewBox="0 0 14 8" fill="none" xmlns="http://www.w3.org/2000/svg">
<path d="M0.333496 3.93542C0.373161 3.92533 0.364463 3.88636 0.373857 3.86096C0.510597 3.49076 0.800777 3.28548 1.19777 3.28478C1.74021 3.28374 2.2823 3.28443 2.82473 3.28443C5.43183 3.28443 8.03928 3.28443 10.6464 3.28443C10.6934 3.28443 10.7403 3.28443 10.8096 3.28443C10.7678 3.23885 10.7389 3.20475 10.708 3.17379C10.2417 2.7072 9.77514 2.24166 9.30925 1.77508C9.07544 1.54091 8.99193 1.26082 9.07996 0.941417C9.16521 0.6321 9.37362 0.43308 9.68468 0.358969C10.001 0.283466 10.272 0.378453 10.5016 0.608788C11.3993 1.5089 12.2987 2.40693 13.1975 3.30566C13.2712 3.37942 13.346 3.45144 13.4181 3.52694C13.7469 3.87279 13.7538 4.36791 13.4174 4.7068C12.4397 5.69216 11.4578 6.6737 10.4728 7.6521C10.1314 7.99134 9.60987 7.98403 9.28351 7.65105C8.96236 7.3233 8.96584 6.81009 9.30021 6.47085C9.76331 6.00148 10.232 5.53733 10.6986 5.07144C10.7316 5.03839 10.7678 5.00846 10.8315 4.95106C10.7497 4.95106 10.7045 4.95106 10.6596 4.95106C7.54034 4.95106 4.42142 4.95106 1.30216 4.95106C0.77503 4.95106 0.558612 4.80527 0.354024 4.31294C0.351589 4.30702 0.340803 4.30424 0.333844 4.30006C0.333496 4.17828 0.333496 4.05685 0.333496 3.93542Z" fill="black"/>
</svg>
