<svg width="193" height="42" viewBox="0 0 193 42" fill="none" xmlns="http://www.w3.org/2000/svg">
<path d="M56.295 20.9998H65.895V24.7141H56.295V20.9998ZM56.6379 31.9998H52.0093V11.9998H67.1236V15.714H56.6379V31.9998Z" fill="white"/>
<path d="M70.2571 31.9998V11.9998H74.8856V31.9998H70.2571Z" fill="white"/>
<path d="M79.6321 31.9998V11.9998H88.2892C90.0797 11.9998 91.6226 12.295 92.9178 12.8855C94.213 13.4569 95.213 14.2855 95.9178 15.3712C96.6226 16.4569 96.975 17.7521 96.975 19.2569C96.975 20.7426 96.6226 22.0283 95.9178 23.1141C95.213 24.1807 94.213 24.9998 92.9178 25.5712C91.6226 26.1426 90.0797 26.4283 88.2892 26.4283H82.2035L84.2607 24.3998V31.9998H79.6321ZM92.3464 31.9998L87.3464 24.7426H92.2892L97.3464 31.9998H92.3464ZM84.2607 24.9141L82.2035 22.7426H88.0321C89.4607 22.7426 90.5273 22.4379 91.2321 21.8283C91.9369 21.1998 92.2892 20.3426 92.2892 19.2569C92.2892 18.1521 91.9369 17.295 91.2321 16.6855C90.5273 16.076 89.4607 15.7712 88.0321 15.7712H82.2035L84.2607 13.5712V24.9141Z" fill="white"/>
<path d="M104.899 20.0569H114.528V23.6569H104.899V20.0569ZM105.242 28.2855H116.128V31.9998H100.642V11.9998H115.756V15.714H105.242V28.2855Z" fill="white"/>
<path d="M119.811 31.9998V11.9998H129.582C132.096 11.9998 133.982 12.4759 135.239 13.4283C136.515 14.3807 137.154 15.6379 137.154 17.1998C137.154 18.2474 136.896 19.1617 136.382 19.9426C135.868 20.7045 135.163 21.295 134.268 21.7141C133.373 22.1331 132.344 22.3426 131.182 22.3426L131.725 21.1712C132.982 21.1712 134.096 21.3807 135.068 21.7998C136.039 22.1998 136.792 22.7998 137.325 23.5998C137.877 24.3998 138.154 25.3807 138.154 26.5426C138.154 28.2569 137.477 29.5998 136.125 30.5712C134.773 31.5236 132.782 31.9998 130.154 31.9998H119.811ZM124.411 28.5141H129.811C131.011 28.5141 131.915 28.3236 132.525 27.9426C133.154 27.5426 133.468 26.9141 133.468 26.0569C133.468 25.2188 133.154 24.5998 132.525 24.1998C131.915 23.7807 131.011 23.5712 129.811 23.5712H124.068V20.1998H129.011C130.135 20.1998 130.992 20.0093 131.582 19.6283C132.192 19.2283 132.496 18.6283 132.496 17.8283C132.496 17.0474 132.192 16.4664 131.582 16.0855C130.992 15.6855 130.135 15.4855 129.011 15.4855H124.411V28.5141Z" fill="white"/>
<path d="M141.658 31.9998V11.9998H146.286V31.9998H141.658Z" fill="white"/>
<path d="M151.033 31.9998V11.9998H159.69C161.48 11.9998 163.023 12.295 164.319 12.8855C165.614 13.4569 166.614 14.2855 167.319 15.3712C168.023 16.4569 168.376 17.7521 168.376 19.2569C168.376 20.7426 168.023 22.0283 167.319 23.1141C166.614 24.1807 165.614 24.9998 164.319 25.5712C163.023 26.1426 161.48 26.4283 159.69 26.4283H153.604L155.661 24.3998V31.9998H151.033ZM163.747 31.9998L158.747 24.7426H163.69L168.747 31.9998H163.747ZM155.661 24.9141L153.604 22.7426H159.433C160.861 22.7426 161.928 22.4379 162.633 21.8283C163.338 21.1998 163.69 20.3426 163.69 19.2569C163.69 18.1521 163.338 17.295 162.633 16.6855C161.928 16.076 160.861 15.7712 159.433 15.7712H153.604L155.661 13.5712V24.9141Z" fill="white"/>
<path d="M172.043 31.9998V11.9998H181.129C183.3 11.9998 185.214 12.4188 186.871 13.2569C188.529 14.0759 189.824 15.2283 190.757 16.714C191.691 18.1998 192.157 19.9617 192.157 21.9998C192.157 24.0188 191.691 25.7807 190.757 27.2855C189.824 28.7712 188.529 29.9331 186.871 30.7712C185.214 31.5903 183.3 31.9998 181.129 31.9998H172.043ZM176.671 28.1998H180.9C182.233 28.1998 183.386 27.9522 184.357 27.4569C185.348 26.9426 186.11 26.2188 186.643 25.2855C187.195 24.3522 187.471 23.2569 187.471 21.9998C187.471 20.7236 187.195 19.6283 186.643 18.714C186.11 17.7807 185.348 17.0664 184.357 16.5712C183.386 16.0569 182.233 15.7998 180.9 15.7998H176.671V28.1998Z" fill="white"/>
<path d="M22.841 7.73963C14.6453 9.13473 11.9057 16.8304 11.5604 20.5038C15.2409 18.7103 17.5607 17.7841 20.6714 17.1948C23.782 16.6055 27.0463 17.316 31.3474 15.7487C40.3291 12.4758 39.3054 3.56326 38.3191 2.02671C35.9376 5.47861 33.0855 5.99576 22.841 7.73963Z" fill="white"/>
<path d="M22.841 7.73963C14.6453 9.13473 11.9057 16.8304 11.5604 20.5038C15.2409 18.7103 17.5607 17.7842 20.6714 17.1948C23.782 16.6055 27.0463 17.316 31.3474 15.7487C40.3291 12.4758 39.3054 3.56326 38.3191 2.02671C35.9376 5.47861 33.0855 5.99576 22.841 7.73963Z" fill="url(#paint0_linear_1908_3535)"/>
<path d="M22.841 7.73963C14.6453 9.13473 11.9057 16.8304 11.5604 20.5038C13.8817 17.1305 17.1994 13.474 20.3101 12.8847C23.4207 12.2954 25.3824 12.7913 29.6222 11.0651C36.3923 8.30865 39.3054 3.56326 38.3191 2.02671C35.9376 5.47861 33.0855 5.99576 22.841 7.73963Z" fill="url(#paint1_linear_1908_3535)"/>
<path d="M22.0753 19.7295C6.36049 21.5987 9.33389 36.9952 8.86338 42.0001C11.9189 37.8173 11.4243 33.769 17.3652 30.54C21.7605 28.1511 25.2371 29.467 30.7969 27.9155C42.2859 24.7094 41.2369 14.7308 40.019 11.8652C36.5462 15.9004 36.701 19.202 22.0753 19.7295Z" fill="url(#paint2_linear_1908_3535)"/>
<path d="M22.0759 19.7293C11.3304 20.8937 9.67 28.6685 9.16679 32.782C9.73123 32.2616 10.3751 29.1004 17.389 28.394C19.8398 28.1472 26.894 29.2139 30.7974 27.9152C42.2864 24.7091 41.2375 14.7305 40.0196 11.865C36.5467 15.9002 36.7015 19.2018 22.0759 19.7293Z" fill="url(#paint3_linear_1908_3535)"/>
<path d="M22.0759 19.7293C11.3304 20.8937 9.67 28.6685 9.16679 32.782C10.801 30.4733 10.8889 28.8804 17.1972 26.0268C20.2985 24.4958 25.6562 25.2054 29.5596 23.9067C41.0485 20.7007 41.2375 14.7305 40.0196 11.865C36.5467 15.9002 36.7015 19.2018 22.0759 19.7293Z" fill="url(#paint4_linear_1908_3535)"/>
<path d="M9.79846 29.4715C15.116 29.2127 19.7294 25.3547 20.9674 19.8941C13.9014 20.9177 10.8667 25.4068 9.79846 29.4715Z" fill="url(#paint5_linear_1908_3535)"/>
<path d="M10.1426 15.6723C11.0327 11.8701 12.3347 10.0434 15.5221 7.48154C11.2313 3.59205 5.68202 4.93155 2.44054 7.29946C5.26251 8.67215 7.98073 10.4222 10.1426 15.6723Z" fill="url(#paint6_linear_1908_3535)"/>
<path d="M11.5603 20.5174C12.2436 14.2024 16.3455 10.3646 18.424 9.45519C20.1536 11.5521 21.1907 14.2222 21.2238 17.095C18.1378 17.4425 13.4778 19.5364 11.5603 20.5174Z" fill="url(#paint7_linear_1908_3535)"/>
<defs>
<linearGradient id="paint0_linear_1908_3535" x1="38.6861" y1="2.37007" x2="11.5613" y2="20.2212" gradientUnits="userSpaceOnUse">
<stop stop-color="#F70000"/>
<stop offset="0.572216" stop-color="#FF7A00"/>
</linearGradient>
<linearGradient id="paint1_linear_1908_3535" x1="22.0898" y1="15.4878" x2="13.3362" y2="0.505172" gradientUnits="userSpaceOnUse">
<stop stop-color="#DB0000" stop-opacity="0.61"/>
<stop offset="0.549387" stop-color="#FF922D"/>
<stop offset="0.979167" stop-color="#FF1F00"/>
</linearGradient>
<linearGradient id="paint2_linear_1908_3535" x1="21.6912" y1="16.9797" x2="8.66907" y2="42.5626" gradientUnits="userSpaceOnUse">
<stop offset="0.218546"/>
<stop offset="1" stop-color="#CE0000"/>
</linearGradient>
<linearGradient id="paint3_linear_1908_3535" x1="23.0254" y1="16.6073" x2="26.5211" y2="29.134" gradientUnits="userSpaceOnUse">
<stop stop-color="#FF0000"/>
<stop offset="1" stop-color="#FA6900"/>
</linearGradient>
<linearGradient id="paint4_linear_1908_3535" x1="15.4416" y1="24.2918" x2="30.6439" y2="19.5904" gradientUnits="userSpaceOnUse">
<stop stop-color="#DF0000"/>
<stop offset="1" stop-color="#FF9900"/>
</linearGradient>
<linearGradient id="paint5_linear_1908_3535" x1="5.20622" y1="6.97936" x2="16.9686" y2="29.2487" gradientUnits="userSpaceOnUse">
<stop stop-color="#FF2C2C"/>
<stop offset="1" stop-color="#FFA800"/>
</linearGradient>
<linearGradient id="paint6_linear_1908_3535" x1="3.67779" y1="3.78764" x2="19.7051" y2="13.2092" gradientUnits="userSpaceOnUse">
<stop stop-color="#FF0000"/>
<stop offset="0.721742" stop-color="#FF7B01"/>
</linearGradient>
<linearGradient id="paint7_linear_1908_3535" x1="4.6822" y1="6.16667" x2="15.2153" y2="28.0578" gradientUnits="userSpaceOnUse">
<stop stop-color="#FF1201"/>
<stop offset="1" stop-color="#FF960E"/>
</linearGradient>
</defs>
</svg>
