<svg width="32" height="32" viewBox="0 0 32 32" fill="none" xmlns="http://www.w3.org/2000/svg">
<circle cx="16" cy="16" r="16" fill="white"/>
<path d="M16.4178 26.285C16.2519 26.2114 16.1182 26.0965 15.9909 25.9682C15.1324 25.1048 14.2695 24.2451 13.4088 23.3844C13.3578 23.3334 13.3089 23.2797 13.2461 23.2147C13.7723 22.9661 14.2819 22.7245 14.7919 22.485C15.6366 22.0877 16.4838 21.6952 17.3252 21.2914C17.4466 21.2329 17.5073 21.2549 17.5942 21.343C18.1199 21.8767 18.6531 22.404 19.1814 22.935C19.5031 23.2582 19.5014 23.5901 19.1787 23.9133C18.47 24.6237 17.758 25.3314 17.0514 26.0439C16.9472 26.1491 16.8253 26.2178 16.6992 26.2855C16.6057 26.285 16.5118 26.285 16.4178 26.285Z" fill="black"/>
<path d="M23.5572 16.6472C23.5331 16.9565 23.3623 17.123 23.1137 17.2389C22.122 17.7012 21.1324 18.1684 20.1423 18.6344C17.5881 19.8356 15.0338 21.0351 12.4823 22.2411C12.3631 22.2975 12.3035 22.2851 12.2138 22.1949C11.1475 21.1216 10.0773 20.052 9.00399 18.9851C8.91916 18.9008 8.91003 18.8396 8.96104 18.7316C10.6347 15.1825 12.3035 11.6317 13.9744 8.08143C14.2107 7.57885 14.6607 7.501 15.0537 7.89404C17.805 10.6442 20.5547 13.395 23.307 16.1441C23.4557 16.2929 23.5588 16.4539 23.5572 16.6472Z" fill="black"/>
<path d="M10.0489 24.3506C9.88032 24.3404 9.72944 24.2824 9.60433 24.1573C8.75382 23.3052 7.90009 22.4557 7.05172 21.6015C6.78969 21.3378 6.7913 20.9904 7.04904 20.7262C7.34811 20.4202 7.65632 20.1227 7.95432 19.8151C8.02949 19.7377 8.06815 19.7469 8.13902 19.8177C9.22042 20.9029 10.3034 21.9859 11.3886 23.0673C11.4568 23.1355 11.4723 23.1763 11.3934 23.2531C11.0858 23.5506 10.7856 23.8561 10.4833 24.1589C10.3641 24.2786 10.2186 24.3361 10.0489 24.3506Z" fill="black"/>
<path d="M21.6581 10.1416C21.4089 10.1336 21.2199 10.0235 21.1174 9.79423C21.0159 9.56764 21.0325 9.33568 21.2049 9.15688C21.65 8.6935 22.1032 8.2371 22.5682 7.79412C22.7942 7.57881 23.1502 7.60834 23.3704 7.82204C23.5953 8.04058 23.6286 8.40516 23.4069 8.63819C22.9639 9.10372 22.5037 9.5526 22.0457 10.0036C21.9426 10.1046 21.8057 10.1448 21.6581 10.1416Z" fill="black"/>
<path d="M18.3909 6.97211C18.3909 7.18635 18.3957 7.40059 18.3898 7.61483C18.3807 7.94934 18.1294 8.20063 17.8056 8.20707C17.4845 8.21352 17.2026 7.97243 17.1914 7.64382C17.1758 7.18903 17.1758 6.73317 17.1914 6.27838C17.2026 5.95139 17.4888 5.70601 17.8062 5.71406C18.1289 5.72211 18.3807 5.97555 18.3893 6.30953C18.3957 6.53021 18.3909 6.75143 18.3909 6.97211Z" fill="black"/>
<path d="M24.2604 12.8188C24.4677 12.8188 24.6755 12.8151 24.8827 12.8199C25.2301 12.8274 25.4879 13.0782 25.4938 13.4084C25.4997 13.723 25.2532 14.0049 24.9214 14.0173C24.4736 14.0344 24.0242 14.0339 23.5764 14.0183C23.2316 14.0065 22.9916 13.73 23.0002 13.3966C23.0094 13.0669 23.2649 12.8253 23.6177 12.8188C23.8319 12.8156 24.0462 12.8188 24.2604 12.8188Z" fill="black"/>
</svg>
