<svg width="40" height="40" viewBox="0 0 40 40" fill="none" xmlns="http://www.w3.org/2000/svg">
<path d="M0 17.988C0.1869 17.5964 0.149311 17.1631 0.216136 16.7507C1.03787 11.6229 3.51769 7.46728 7.57625 4.25761C10.5541 1.90308 13.957 0.510204 17.7294 0.123874C23.5254 -0.470239 28.7116 1.06673 33.1586 4.86425C36.763 7.94236 38.987 11.8516 39.7471 16.5345C41.0377 24.4836 37.3101 32.3281 30.3676 36.4212C29.1324 37.15 27.8356 37.7388 26.4803 38.2024C26.3947 38.2317 26.308 38.262 26.2193 38.2808C25.4299 38.4457 24.9099 38.0354 24.9099 37.2314C24.9099 35.448 24.9225 33.6636 24.9225 31.8802C24.9225 31.0125 24.7669 30.1751 24.3847 29.3868C24.1968 28.9994 23.9378 28.6622 23.6006 28.3239C24.5445 28.1902 25.4393 28.0639 26.3133 27.8258C28.4715 27.238 30.2914 26.173 31.4452 24.1755C32.175 22.9121 32.5071 21.5276 32.6365 20.093C32.7796 18.4975 32.7305 16.9209 32.0403 15.4278C31.7271 14.7501 31.3345 14.1247 30.8417 13.5661C30.7038 13.4095 30.6777 13.2842 30.7404 13.0837C31.2374 11.4935 31.0829 9.9283 30.5441 8.37568C30.4282 8.04051 30.1724 8.10107 29.9448 8.10733C29.1669 8.12613 28.436 8.35897 27.7239 8.65446C26.8447 9.01886 26.0157 9.47724 25.2274 10.0066C25.0499 10.1256 24.8901 10.1465 24.6854 10.0943C21.5457 9.29974 18.405 9.30287 15.2663 10.0954C15.0418 10.1517 14.8779 10.1037 14.692 9.98469C13.4516 9.18906 12.1673 8.4874 10.7024 8.1846C9.57472 7.9528 9.42332 8.04051 9.14558 9.13685C8.8031 10.488 8.75716 11.837 9.23224 13.1703C9.28654 13.3217 9.25208 13.4021 9.15602 13.5086C7.47705 15.3745 7.06253 17.6027 7.29537 20.0157C7.43633 21.4775 7.75479 22.8881 8.49926 24.1755C9.64468 26.1583 11.4469 27.2307 13.5873 27.8269C14.4634 28.0712 15.3603 28.2132 16.323 28.3312C15.7445 28.9284 15.3342 29.5956 15.2204 30.3756C15.1421 30.9133 14.8466 31.0856 14.3903 31.2234C12.1882 31.8875 10.503 31.2704 9.25731 29.3252C8.56818 28.2497 7.64829 27.4969 6.3379 27.3132C6.07165 27.2756 5.81583 27.3163 5.56837 27.3925C5.27184 27.4844 5.22068 27.6744 5.4034 27.9313C5.54854 28.1359 5.74483 28.2936 5.95679 28.4189C7.01137 29.0433 7.72765 29.9684 8.14217 31.0846C9.0631 33.5634 11.355 34.4216 13.7011 34.2013C14.1272 34.1616 14.5511 34.0896 15.0241 34.0269C15.0241 35.1838 15.0596 36.3408 15.0105 37.4945C14.9813 38.1899 14.3036 38.4958 13.5226 38.2369C11.5847 37.5927 9.78355 36.6749 8.14008 35.4647C4.10241 32.491 1.51086 28.563 0.417654 23.6608C0.258946 22.9497 0.164973 22.2272 0.0856191 21.5025C0.0762219 21.4211 0.122164 21.3136 0.00104414 21.2687C0 20.1765 0 19.0822 0 17.988Z" fill="white"/>
</svg>
