<svg width="40" height="40" viewBox="0 0 40 40" fill="none" xmlns="http://www.w3.org/2000/svg">
<g clip-path="url(#clip0_1963_3569)">
<path d="M0 21.641C0 20.5217 0 19.4014 0 18.2822C0.127377 18.2436 0.0762175 18.1329 0.0856141 18.0535C0.181669 17.2663 0.29965 16.4833 0.462525 15.7065C2.19987 7.37997 9.5679 0.833617 18.0458 0.0902355C22.2847 -0.281455 26.3044 0.478631 29.9587 2.67745C36.3641 6.53113 39.7448 12.2422 39.9787 19.7241C40.105 23.7678 38.9983 27.5233 36.7546 30.8946C33.4469 35.8644 28.829 38.84 22.9174 39.786C22.4393 39.8622 21.9475 39.8382 21.4829 40C20.4409 40 19.4 40 18.358 40C18.3005 39.8664 18.1784 39.9259 18.0865 39.9165C15.9263 39.692 13.8298 39.1982 11.8659 38.2658C5.33836 35.1659 1.43247 30.0604 0.212991 22.9189C0.14095 22.493 0.177493 22.0492 0 21.641ZM4.80692 20.0081C4.81736 24.7732 8.63659 28.6206 13.3631 28.6269C18.1022 28.6332 21.9517 24.7607 21.9475 19.9924C21.9433 15.2241 18.0729 11.3454 13.3475 11.3746C8.60527 11.4038 4.79648 15.2544 4.80692 20.0081ZM31.34 20.0007C31.3421 18.468 31.1364 16.9677 30.6279 15.5164C30.2375 14.4003 29.7154 13.3604 28.7945 12.5753C27.7066 11.6481 26.4558 11.6429 25.3564 12.5492C24.7529 13.0462 24.2988 13.6663 23.9803 14.3711C22.4507 17.757 22.4058 21.2108 23.5804 24.7012C23.9365 25.7599 24.4825 26.7194 25.3585 27.4492C26.4527 28.3617 27.7066 28.3471 28.7966 27.4252C29.3824 26.9292 29.8115 26.3111 30.1477 25.6304C31.0226 23.8565 31.3285 21.9584 31.34 20.0007ZM32.1753 19.9726C32.2003 21.973 32.287 23.9588 32.808 25.8987C32.9155 26.3007 33.046 26.6974 33.3039 27.0326C33.5534 27.3583 33.8186 27.3563 34.0692 27.0347C34.254 26.7966 34.3657 26.5189 34.4587 26.2339C34.8658 24.9883 35.0131 23.6978 35.1008 22.399C35.272 19.8723 35.226 17.353 34.751 14.8566C34.6372 14.2583 34.4889 13.6622 34.1778 13.1276C33.8646 12.5889 33.52 12.592 33.1943 13.1286C33.0116 13.4304 32.8978 13.7624 32.8069 14.1017C32.2901 16.028 32.2024 18.0003 32.1753 19.9726Z" fill="white"/>
<path d="M4.80666 20.0081C4.79622 15.2545 8.60605 11.4039 13.3472 11.3747C18.0727 11.3454 21.942 15.2231 21.9472 19.9925C21.9514 24.7608 18.1019 28.6332 13.3629 28.627C8.63633 28.6197 4.8171 24.7733 4.80666 20.0081Z" fill="black"/>
<path d="M31.3394 20.0005C31.3279 21.9592 31.022 23.8563 30.146 25.6312C29.8098 26.313 29.3818 26.9301 28.795 27.426C27.705 28.3479 26.4511 28.3625 25.3569 27.45C24.4819 26.7202 23.9359 25.7607 23.5788 24.702C22.4042 21.2117 22.4491 17.7579 23.9787 14.3719C24.2971 13.6672 24.7513 13.048 25.3548 12.55C26.4542 11.6438 27.705 11.649 28.7929 12.5761C29.7138 13.3602 30.2358 14.4012 30.6263 15.5173C31.1358 16.9664 31.3415 18.4668 31.3394 20.0005Z" fill="black"/>
<path d="M32.1758 19.9728C32.2029 18.0016 32.2906 16.0283 32.8074 14.102C32.8983 13.7626 33.0121 13.4317 33.1948 13.1289C33.5205 12.5922 33.8651 12.5891 34.1783 13.1279C34.4895 13.6624 34.6377 14.2586 34.7515 14.8568C35.2266 17.3532 35.2715 19.8715 35.1013 22.3992C35.0136 23.6981 34.8664 24.9875 34.4592 26.2341C34.3663 26.5192 34.2545 26.7969 34.0697 27.0349C33.8202 27.3565 33.554 27.3586 33.3044 27.0328C33.0476 26.6977 32.9171 26.3009 32.8085 25.899C32.2875 23.9591 32.1998 21.9733 32.1758 19.9728Z" fill="black"/>
</g>
<defs>
<clipPath id="clip0_1963_3569">
<rect width="40" height="40" fill="white"/>
</clipPath>
</defs>
</svg>
