<svg width="40" height="40" viewBox="0 0 40 40" fill="none" xmlns="http://www.w3.org/2000/svg">
<g clip-path="url(#clip0_1963_3570)">
<path d="M21.4774 40C20.4618 40 19.4472 40 18.4316 40C18.3794 39.8904 18.2761 39.929 18.1915 39.9207C15.9097 39.7067 13.7073 39.1712 11.6468 38.165C5.24201 35.0398 1.41123 29.9679 0.212937 22.9254C0.140914 22.4995 0.176404 22.0548 0 21.6457C0 20.5267 0 19.4067 0 18.2877C0.122126 18.246 0.0772419 18.1374 0.0866362 18.056C0.188929 17.1907 0.311055 16.3285 0.516686 15.4809C1.83502 10.0583 4.86728 5.85282 9.60409 2.93329C13.7971 0.348818 18.3825 -0.500843 23.2394 0.277839C27.3488 0.936482 30.9343 2.72453 33.8914 5.65554C38.6356 10.3569 40.6031 16.0738 39.7952 22.6947C39.314 26.6434 37.694 30.1308 35.0678 33.1213C31.8299 36.807 27.7789 39.0376 22.9189 39.785C22.4388 39.8591 21.945 39.8403 21.4774 40ZM20.0077 31.6641C20.9879 31.6725 21.9586 31.5848 22.92 31.4074C25.2748 30.9721 27.4417 30.113 29.2392 28.4857C30.8039 27.0682 31.7589 25.3512 31.6264 23.1665C31.6055 22.821 31.6754 22.6258 31.9917 22.4275C33.2913 21.6133 33.6942 19.9223 32.9499 18.5863C32.2088 17.2564 30.5565 16.7314 29.1672 17.3556C28.8572 17.4944 28.6442 17.9078 28.2945 17.817C27.971 17.7335 27.7027 17.4516 27.3979 17.2784C25.4168 16.1521 23.2738 15.5926 21.0098 15.4611C20.8042 15.4496 20.5526 15.5195 20.6403 15.126C21.0536 13.2618 21.4545 11.3944 21.8354 9.5239C21.8991 9.2118 22.0275 9.19719 22.2812 9.25356C23.4481 9.51138 24.6151 9.76711 25.7873 9.99988C26.0994 10.0615 26.2549 10.1679 26.328 10.5093C26.5796 11.6773 27.8165 12.3537 28.9532 11.9883C29.8237 11.7086 30.3936 10.9341 30.3989 10.0228C30.4041 9.10638 29.8498 8.32874 28.9835 8.03647C28.1296 7.74838 27.1912 8.03125 26.6662 8.78384C26.494 9.03122 26.3499 9.07089 26.0681 9.00722C24.6736 8.69512 23.2728 8.41016 21.8751 8.1158C21.2353 7.98115 21.0766 8.08971 20.9378 8.74209C20.5015 10.8005 20.0484 12.8557 19.6351 14.9193C19.5537 15.3243 19.4117 15.4517 18.9963 15.4726C16.4045 15.6051 13.9829 16.3024 11.8128 17.7648C11.652 17.8733 11.5644 17.8545 11.4182 17.7439C9.99865 16.6761 8.12814 16.96 7.17201 18.3806C6.22423 19.7887 6.65742 21.631 8.15841 22.5308C8.3296 22.6341 8.38492 22.7333 8.36718 22.9285C8.30977 23.5788 8.32751 24.226 8.48513 24.8658C8.92666 26.6601 10.0091 28.0087 11.4631 29.0744C14.0027 30.9408 16.9087 31.6328 20.0077 31.6641Z" fill="#FE4501"/>
<path d="M20.007 31.664C16.9079 31.6326 14.0019 30.9406 11.4623 29.0774C10.0094 28.0117 8.92588 26.6631 8.48435 24.8688C8.32673 24.2289 8.30899 23.5817 8.3664 22.9314C8.38414 22.7352 8.32882 22.636 8.15764 22.5338C6.65664 21.634 6.22346 19.7906 7.17124 18.3836C8.12737 16.9629 9.99787 16.678 11.4175 17.7468C11.5636 17.8564 11.6502 17.8763 11.812 17.7677C13.9821 16.3053 16.4037 15.6081 18.9955 15.4755C19.4109 15.4546 19.5529 15.3273 19.6343 14.9223C20.0477 12.8587 20.5007 10.8034 20.937 8.74503C21.0758 8.09161 21.2355 7.98409 21.8743 8.11875C23.272 8.41414 24.6728 8.69806 26.0673 9.01016C26.3491 9.07383 26.4932 9.03312 26.6654 8.78678C27.1905 8.0342 28.1278 7.75132 28.9827 8.03942C29.849 8.33168 30.4033 9.10932 30.3981 10.0258C30.3929 10.936 29.8229 11.7105 28.9524 11.9913C27.8147 12.3577 26.5777 11.6802 26.3272 10.5122C26.2542 10.1709 26.0986 10.0644 25.7865 10.0028C24.6143 9.77005 23.4474 9.51432 22.2804 9.2565C22.0257 9.20013 21.8983 9.21474 21.8347 9.52684C21.4537 11.3974 21.0529 13.2647 20.6395 15.129C20.5529 15.5225 20.8034 15.4515 21.009 15.464C23.2741 15.5956 25.417 16.1561 27.3971 17.2813C27.7019 17.4546 27.9702 17.7364 28.2938 17.8199C28.6445 17.9107 28.8574 17.4984 29.1664 17.3585C30.5546 16.7343 32.208 17.2594 32.9492 18.5892C33.6934 19.9253 33.2894 21.6162 31.9909 22.4304C31.6747 22.6287 31.6047 22.8229 31.6256 23.1694C31.7582 25.3531 30.8031 27.0712 29.2384 28.4887C27.442 30.116 25.274 30.975 22.9192 31.4103C21.9578 31.5857 20.9871 31.6723 20.007 31.664ZM24.5893 24.1621C25.7448 24.1548 26.655 23.231 26.6487 22.0713C26.6414 20.9211 25.7082 19.9983 24.558 20.0056C23.415 20.013 22.486 20.9555 22.4933 22.1027C22.4985 23.2488 23.4369 24.1694 24.5893 24.1621ZM15.4267 24.1631C16.577 24.1558 17.5008 23.2216 17.4924 22.0724C17.4851 20.9294 16.5415 20.0004 15.3954 20.0067C14.2493 20.013 13.3318 20.9472 13.337 22.1027C13.3433 23.2571 14.2681 24.1694 15.4267 24.1631ZM19.8285 29.1285C20.3702 29.1494 21.0716 29.092 21.7647 28.9761C22.891 28.7883 23.9713 28.472 24.845 27.6787C25.131 27.4188 25.1707 27.0931 24.9598 26.8562C24.7385 26.6077 24.4411 26.6025 24.1342 26.8708C23.7448 27.2111 23.2981 27.4365 22.8148 27.6046C22.1092 27.8499 21.3796 27.9918 20.6385 28.0138C18.9057 28.0639 17.1981 27.9762 15.766 26.7956C15.5196 26.5921 15.2451 26.6213 15.0353 26.8624C14.8255 27.1025 14.8464 27.3708 15.0656 27.5983C15.3474 27.8916 15.6845 28.1108 16.0457 28.2966C17.1803 28.8812 18.412 29.0492 19.8285 29.1285Z" fill="#FEFDFD"/>
<path d="M24.5892 24.1624C23.4369 24.1697 22.4985 23.248 22.4922 22.1029C22.486 20.9558 23.4139 20.0132 24.5569 20.0059C25.7072 19.9986 26.6414 20.9213 26.6476 22.0716C26.6549 23.2313 25.7447 24.1561 24.5892 24.1624Z" fill="#FE4602"/>
<path d="M15.4276 24.1633C14.269 24.1706 13.3431 23.2573 13.3379 22.1028C13.3327 20.9473 14.2502 20.0131 15.3963 20.0069C16.5424 20.0006 17.486 20.9296 17.4933 22.0726C17.5017 23.2218 16.5779 24.156 15.4276 24.1633Z" fill="#FE4602"/>
<path d="M19.8292 29.1289C18.4128 29.0496 17.1821 28.8815 16.0454 28.297C15.6842 28.1112 15.3471 27.8909 15.0653 27.5987C14.8461 27.3701 14.8252 27.1029 15.035 26.8628C15.2448 26.6217 15.5193 26.5935 15.7657 26.796C17.1988 27.9765 18.9054 28.0642 20.6382 28.0141C21.3793 27.9922 22.1089 27.8502 22.8145 27.6049C23.2978 27.4369 23.7445 27.2114 24.1339 26.8711C24.4408 26.6029 24.7382 26.6071 24.9595 26.8565C25.1704 27.0935 25.1307 27.4191 24.8447 27.6791C23.971 28.4724 22.8907 28.7886 21.7644 28.9765C21.0724 29.0913 20.3709 29.1498 19.8292 29.1289Z" fill="#FE4805"/>
</g>
<defs>
<clipPath id="clip0_1963_3570">
<rect width="40" height="40" fill="white"/>
</clipPath>
</defs>
</svg>
