<svg width="40" height="40" viewBox="0 0 40 40" fill="none" xmlns="http://www.w3.org/2000/svg">
<g clip-path="url(#clip0_1963_3578)">
<path d="M0 21.6442C0 20.5502 0 19.4573 0 18.3633C0.111697 18.3132 0.0730727 18.2088 0.0824678 18.1253C0.175375 17.2453 0.299598 16.3705 0.508377 15.5103C1.78924 10.2209 4.70275 6.07139 9.28128 3.137C13.555 0.397817 18.2452 -0.519767 23.2455 0.275682C27.3563 0.930204 30.9411 2.72362 33.8974 5.65488C38.6409 10.3566 40.6065 16.074 39.7985 22.6954C39.3162 26.6455 37.6961 30.1321 35.0686 33.1229C31.8305 36.8089 27.7781 39.0376 22.9177 39.785C22.4636 39.855 21.9938 39.831 21.5564 39.9991C20.4885 39.9991 19.4217 39.9991 18.3538 39.9991C18.0208 39.8331 17.6533 39.8759 17.3015 39.8247C12.9443 39.1942 9.16227 37.3716 6.01702 34.2858C2.83313 31.1625 0.899838 27.3825 0.21713 22.9658C0.149277 22.5253 0.17955 22.067 0 21.6442ZM16.3401 28.7291C16.3077 29.1916 16.3745 29.2386 16.7973 29.0548C16.979 28.9755 17.1251 28.8461 17.266 28.7093C17.9863 28.013 18.7191 27.3282 19.4238 26.6163C19.6482 26.3898 19.785 26.3574 20.0553 26.562C21.5199 27.6665 23.0012 28.7469 24.4794 29.8336C25.5483 30.6196 26.2843 30.3451 26.5567 29.0611C27.5672 24.3072 28.5819 19.5543 29.583 14.7994C29.7135 14.1804 29.9337 13.5676 29.8481 12.9173C29.7636 12.2753 29.2771 11.9329 28.6508 12.078C28.4869 12.1155 28.3282 12.1761 28.1706 12.2366C23.3718 14.0864 18.574 15.9373 13.7763 17.7902C12.153 18.4165 10.5277 19.0397 8.9107 19.6827C8.55055 19.8258 8.13508 20.0251 8.15387 20.4803C8.1737 20.948 8.6278 21.044 8.99316 21.1776C9.0297 21.1912 9.06728 21.2016 9.10486 21.2131C10.5548 21.6662 12.0079 22.1109 13.4527 22.5796C13.7585 22.6787 13.9809 22.6297 14.245 22.4626C17.86 20.1755 21.4813 17.8987 25.1015 15.6209C25.3207 15.4832 25.5306 15.3214 25.8062 15.314C25.898 15.312 25.9951 15.3109 26.0462 15.407C26.1005 15.5093 26.0285 15.5844 25.9659 15.645C25.7696 15.8349 25.5671 16.0187 25.3646 16.2024C22.5544 18.7412 19.7442 21.2789 16.9341 23.8176C16.7921 23.946 16.6501 24.0577 16.6366 24.2905C16.5478 25.7697 16.4414 27.2489 16.3401 28.7291Z" fill="#039BE4"/>
<path d="M16.3402 28.7292C16.4414 27.249 16.5479 25.7698 16.6377 24.2895C16.6512 24.0578 16.7932 23.945 16.9352 23.8166C19.7454 21.2779 22.5555 18.7402 25.3657 16.2014C25.5682 16.0187 25.7707 15.834 25.967 15.644C26.0296 15.5834 26.1016 15.5093 26.0474 15.406C25.9962 15.3099 25.8991 15.311 25.8073 15.3131C25.5317 15.3204 25.3218 15.4822 25.1026 15.62C21.4824 17.8988 17.8611 20.1745 14.2461 22.4617C13.982 22.6287 13.7597 22.6777 13.4538 22.5786C12.009 22.1099 10.5559 21.6652 9.10597 21.2121C9.06839 21.2006 9.03081 21.1902 8.99427 21.1766C8.62891 21.042 8.17481 20.9459 8.15498 20.4793C8.13514 20.0242 8.55166 19.8248 8.9118 19.6818C10.5288 19.0387 12.1541 18.4155 13.7774 17.7892C18.5751 15.9373 23.3729 14.0865 28.1717 12.2357C28.3293 12.1751 28.488 12.1146 28.6519 12.077C29.2772 11.9319 29.7636 12.2743 29.8492 12.9163C29.9348 13.5677 29.7146 14.1794 29.5841 14.7984C28.583 19.5544 27.5673 24.3062 26.5578 29.0601C26.2854 30.3441 25.5484 30.6197 24.4805 29.8326C23.0034 28.7459 21.521 27.6655 20.0564 26.561C19.7861 26.3564 19.6493 26.3888 19.4249 26.6153C18.7203 27.3273 17.9874 28.0121 17.2671 28.7083C17.1262 28.8451 16.9801 28.9745 16.7984 29.0539C16.3746 29.2386 16.3078 29.1906 16.3402 28.7292Z" fill="#FDFEFE"/>
</g>
<defs>
<clipPath id="clip0_1963_3578">
<rect width="40" height="40" fill="white"/>
</clipPath>
</defs>
</svg>
