<svg width="40" height="40" viewBox="0 0 40 40" fill="none" xmlns="http://www.w3.org/2000/svg">
<g clip-path="url(#clip0_1963_3563)">
<path d="M21.515 40C20.4492 40 19.3844 40 18.3186 40C17.9863 39.8343 17.6195 39.8771 17.2684 39.826C12.9177 39.1967 9.1442 37.3787 6.00514 34.3012C2.82754 31.185 0.898063 27.4157 0.216702 23.0108C0.148983 22.5711 0.178154 22.1138 0 21.6918C0 20.601 0 19.5102 0 18.4194C0.175028 18.01 0.143773 17.5661 0.212535 17.139C1.22207 10.9421 4.36113 6.10073 9.77034 2.94605C16.3985 -0.919162 23.2632 -1.00251 29.9142 2.82311C36.2559 6.46954 39.5669 12.1642 39.8857 19.481C40.0836 24.0391 38.7521 28.2012 36.0194 31.8633C32.7251 36.2796 28.3327 38.9269 22.8735 39.7854C22.4214 39.8573 21.9525 39.8312 21.515 40ZM32.6991 12.1319C31.8396 12.4507 30.9748 12.7445 30.033 12.7997C31.0092 12.084 31.7364 11.1974 32.1438 9.96699C31.1634 10.5254 30.2039 10.9015 29.1943 11.1568C28.938 11.2214 28.7536 11.1984 28.5401 10.9953C26.2605 8.83034 22.5485 9.16477 20.6815 11.6933C19.797 12.8904 19.4813 14.2364 19.699 15.7023C19.7449 16.0138 19.6855 16.0919 19.3729 16.0388C18.977 15.9711 18.5707 15.9711 18.1748 15.9044C14.7878 15.3356 11.8957 13.8301 9.53384 11.3255C9.29943 11.0765 9.07335 10.8202 8.82435 10.5452C8.26489 11.5089 8.03464 12.507 8.11799 13.5665C8.24613 15.2033 8.99313 16.5181 10.3892 17.5828C9.5974 17.5797 8.97229 17.3974 8.38053 17.1088C8.10444 16.9733 8.05965 17.0358 8.07944 17.3182C8.18362 18.8507 8.82956 20.1041 9.99329 21.0969C10.6246 21.6356 11.3644 21.9721 12.252 22.2179C11.4342 22.4346 10.7059 22.4148 9.93391 22.3242C10.3017 23.416 10.9237 24.2558 11.7936 24.9163C12.6698 25.581 13.6741 25.9144 14.8545 26.0029C12.5427 27.7501 10.0131 28.4148 7.22618 28.2533C7.34495 28.3658 7.46163 28.4367 7.57936 28.5044C9.66824 29.7202 11.9176 30.4026 14.3336 30.5266C17.1955 30.6735 19.9501 30.2067 22.4391 28.7648C27.6368 25.755 30.1382 21.1407 30.2487 15.1855C30.2539 14.8938 30.3341 14.724 30.5623 14.5459C31.4155 13.8812 32.1792 13.1269 32.7491 12.1944C32.7658 12.1778 32.8012 12.1528 32.797 12.1444C32.773 12.0944 32.7345 12.1142 32.6991 12.1319Z" fill="#04A9F3"/>
<path d="M32.7456 12.194C32.1757 13.1254 31.412 13.8807 30.5587 14.5454C30.3306 14.7236 30.2504 14.8923 30.2452 15.1851C30.1347 21.1402 27.6333 25.7535 22.4356 28.7644C19.9466 30.2063 17.192 30.673 14.3301 30.5261C11.914 30.4022 9.66472 29.7187 7.57584 28.5039C7.45811 28.4352 7.34143 28.3643 7.22266 28.2529C10.0096 28.4143 12.5391 27.7497 14.851 26.0025C13.6706 25.915 12.6663 25.5816 11.7901 24.9159C10.9212 24.2564 10.2982 23.4156 9.93039 22.3238C10.7024 22.4154 11.4317 22.4342 12.2485 22.2175C11.3619 21.9706 10.6222 21.6351 9.98977 21.0965C8.82604 20.1036 8.1801 18.8503 8.07592 17.3177C8.05717 17.0354 8.10092 16.9729 8.37701 17.1083C8.96877 17.398 9.59388 17.5792 10.3857 17.5824C8.98857 16.5176 8.24157 15.2039 8.11447 13.5661C8.03216 12.5065 8.26137 11.5074 8.82083 10.5448C9.07087 10.8198 9.29591 11.0761 9.53032 11.3251C11.8911 13.8286 14.7843 15.3351 18.1713 15.904C18.5672 15.9706 18.9746 15.9706 19.3694 16.0384C19.683 16.0925 19.7414 16.0134 19.6955 15.7019C19.4778 14.237 19.7935 12.8899 20.678 11.6929C22.5449 9.16433 26.257 8.83094 28.5365 10.9948C28.7501 11.198 28.9345 11.2209 29.1908 11.1563C30.2004 10.9011 31.1599 10.525 32.1403 9.96655C31.7339 11.198 31.0067 12.0846 30.0295 12.7993C30.9713 12.7441 31.8371 12.4503 32.6956 12.1315C32.7143 12.1523 32.7299 12.1732 32.7456 12.194Z" fill="#FDFEFE"/>
<path d="M32.6992 12.1321C32.7347 12.1143 32.7734 12.0945 32.7963 12.1446C32.7995 12.1529 32.765 12.178 32.7483 12.1947C32.7316 12.1738 32.7159 12.1529 32.6992 12.1321Z" fill="#FDFEFE"/>
</g>
<defs>
<clipPath id="clip0_1963_3563">
<rect width="40" height="40" fill="white"/>
</clipPath>
</defs>
</svg>
